<?xml version="1.0"?>
<svg xmlns="http://www.w3.org/2000/svg" xmlns:xlink="http://www.w3.org/1999/xlink" version="1.1" id="Capa_1" x="0px" y="0px" viewBox="0 0 512 512" style="enable-background:new 0 0 512 512;" xml:space="preserve" width="512px" height="512px" class=""><g><path style="fill:#FFFBFB" d="M256,90C118.75,90,7.5,164.32,7.5,256S118.75,422,256,422c137.24,0,248.5-74.32,248.5-166  S393.24,90,256,90z M380.73,155c7.32,5.41,7.3,16.2-0.04,21.6c-10.01,7.35-27.65,16.08-52.05,22.44c-0.47-1.7-0.96-3.39-1.48-5.05  c-10.99-35.69-31.35-62.02-55.66-69.98C326.33,126.62,364.11,142.7,380.73,155z M213.28,241.69c13.72,1.56,28.05,2.39,42.72,2.39  c14.67,0,28.99-0.83,42.71-2.39c0.3,4.29,0.46,8.71,0.46,13.24c0,58.21-25.99,96.83-43.17,96.83c-17.19,0-43.18-38.62-43.18-96.83  C212.82,250.4,212.98,245.98,213.28,241.69z M292.34,205.76c-11.25,1.32-23.38,2.07-36.34,2.07c-4.26,0-8.43-0.08-12.5-0.24  c-0.04,0-0.07,0-0.1-0.01c-8.31-0.31-16.22-0.94-23.75-1.82c8.88-29.78,24.65-47.67,36.35-47.67  C267.69,158.09,283.46,175.98,292.34,205.76z M131.3,154.88c12.83-9.42,38.21-21.12,74.27-27.17c0.61-0.1,1.24-0.21,1.87-0.31  c10.2-1.64,21.23-2.83,33.06-3.39c-25.45,8.33-46.56,36.78-57.14,75.02c-24.44-6.38-42.1-15.15-52.1-22.55  C123.94,171.06,123.96,160.27,131.3,154.88z M271.05,390.14c-0.84,0.05-1.68,0.08-2.52,0.11h-0.03c-4.14,0.17-8.31,0.25-12.5,0.25  c-114.75,0-211.69-61.59-211.69-134.5c0-28.15,14.44-54.6,38.78-76.47c8.65,24.16,44.84,44.98,93.76,56.05  c-0.56,6.32-0.84,12.78-0.84,19.35c0,73.69,35.81,133.43,79.99,133.43c44.17,0,79.98-59.74,79.98-133.43  c0-6.57-0.28-13.03-0.84-19.35c48.92-11.07,85.11-31.89,93.76-56.05c24.33,21.87,38.78,48.32,38.78,76.47  C467.68,325.7,379.09,385.05,271.05,390.14z M327.16,193.99c0.45,1.7,0.94,3.39,1.48,5.05  C328.17,197.34,327.68,195.65,327.16,193.99z" data-original="#CCCCCC" class="" data-old_color="#CCCCCC"/><g>
	<path style="fill:#140101" d="M131.26,176.48c10,7.4,27.66,16.17,52.1,22.55c-42.36-1.7-65.027-14.03-72.193-20.863   c-7.167-6.833-4.673-17.897,2.667-23.287c16.64-12.22,36.417-19.63,93.607-27.48c-0.63,0.1-1.26,0.21-1.87,0.31   c-36.06,6.05-61.44,17.75-74.27,27.17C123.96,160.27,123.94,171.06,131.26,176.48z" data-original="#8C8C8C" class="" data-old_color="#8C8C8C"/>
	<path style="fill:#140101" d="M256,90c-4.192,0-8.359,0.072-12.5,0.209c131.432,4.35,236,76.912,236,165.791   s-104.568,161.441-236,165.791c4.141,0.137,8.308,0.209,12.5,0.209c137.24,0,248.5-74.32,248.5-166S393.24,90,256,90z" data-original="#8C8C8C" class="" data-old_color="#8C8C8C"/>
	<path style="fill:#140101" d="M335.14,235.58c0.56,6.32,0.84,12.78,0.84,19.35c0,73.69-35.81,133.43-79.98,133.43   c-4.25,0-8.43-0.56-12.5-1.63c38.23-10.01,66.58-45.22,66.58-111.81c0-0.07,0.9-20.12,0.9-20.19   C310.97,243.71,324.27,237.45,335.14,235.58z" data-original="#8C8C8C" class="" data-old_color="#8C8C8C"/>
	<path style="fill:#140101" d="M328.64,199.04c-0.726,0.28-1.543,0.509-2.426,0.693c-11.411,2.388-22.965-3.947-27.359-14.746   c-12.645-31.081-36.141-53.704-58.355-60.978c11.25-2.76,20.8-1.65,31,0c24.31,7.96,44.67,34.29,55.66,69.98   C327.61,195.69,328.1,197.38,328.64,199.04z" data-original="#8C8C8C" class="" data-old_color="#8C8C8C"/>
</g><path d="M435.881,132.383C387.726,100.216,323.843,82.5,256,82.5c-47.097,0-93.113,8.698-133.074,25.153  c-3.83,1.577-5.656,5.96-4.079,9.791s5.959,5.658,9.791,4.08C166.804,105.807,210.845,97.5,256,97.5c132.888,0,241,71.103,241,158.5  S388.888,414.5,256,414.5S15,343.397,15,256c0-46.378,30.961-90.348,84.946-120.634c3.613-2.027,4.898-6.598,2.872-10.21  c-2.027-3.613-6.599-4.897-10.21-2.872C33.754,155.302,0,204.04,0,256c0,46.927,27.032,90.828,76.115,123.617  C124.269,411.784,188.154,429.5,256,429.5c67.843,0,131.726-17.716,179.881-49.883C484.967,346.827,512,302.926,512,256  S484.967,165.173,435.881,132.383z" data-original="#000000" class="active-path" style="fill:#CCCCCC" data-old_color="#000000"/><path d="M328.635,206.542c0.626,0,1.263-0.079,1.896-0.245c22.056-5.749,41.956-14.37,54.603-23.656  c5.441-4.002,8.565-10.14,8.573-16.839c0.007-6.691-3.098-12.826-8.516-16.831c-18.89-13.979-58.583-29.846-113.335-32.453  c-3.748-0.17-7.053,2.443-7.732,6.134c-0.68,3.691,1.475,7.317,5.042,8.485c22.657,7.419,42.188,33.551,52.246,69.903  C322.33,204.359,325.343,206.542,328.635,206.542z M376.272,161.031c2.122,1.568,2.437,3.652,2.436,4.754  c-0.002,1.884-0.899,3.624-2.457,4.769c-4.841,3.555-18.172,12.107-42.528,19.292c-7.34-22.903-18.426-41.897-31.831-55.141  C328.672,138.936,357.696,147.284,376.272,161.031z" data-original="#000000" class="active-path" style="fill:#CCCCCC" data-old_color="#000000"/><path d="M240.145,116.518c-54.607,2.591-94.323,18.393-113.284,32.317c-5.438,3.994-8.565,10.124-8.578,16.817  c-0.013,6.695,3.09,12.839,8.516,16.856c12.615,9.335,32.541,18.002,54.667,23.778c0.635,0.166,1.272,0.245,1.899,0.245  c3.292,0,6.305-2.183,7.224-5.502c10.057-36.348,29.587-62.476,52.245-69.892c3.567-1.167,5.722-4.793,5.043-8.484  C247.197,118.961,243.884,116.349,240.145,116.518z M178.278,189.834c-24.42-7.216-37.73-15.811-42.555-19.381  c-1.555-1.151-2.444-2.89-2.44-4.771c0.004-1.879,0.899-3.613,2.457-4.757l0,0c18.645-13.691,47.641-22.007,74.37-26.224  C196.705,147.942,185.618,166.936,178.278,189.834z" data-original="#000000" class="active-path" style="fill:#CCCCCC" data-old_color="#000000"/><path d="M90.151,177.001c-0.842-2.353-2.801-4.131-5.224-4.743c-2.422-0.61-4.991,0.022-6.85,1.693  C51.08,198.209,36.81,226.581,36.81,256c0,19.329,6.135,38.166,18.235,55.987c11.409,16.805,27.578,31.923,48.057,44.935  C144.794,383.412,199.095,398,256,398c56.901,0,111.198-14.588,152.89-41.079c20.479-13.011,36.647-28.129,48.056-44.934  c12.1-17.822,18.234-36.659,18.234-55.987c0-29.409-14.27-57.781-41.267-82.048c-1.858-1.67-4.425-2.305-6.85-1.694  c-2.423,0.612-4.382,2.391-5.225,4.743c-4.782,13.357-20.532,26.528-44.348,37.085c-3.787,1.679-5.496,6.109-3.817,9.896  s6.108,5.496,9.896,3.817c22.611-10.023,38.776-22.266,47.464-35.825C450.141,211.635,460.18,233.61,460.18,256  c0,32.605-21.072,63.95-59.334,88.261c-29.416,18.69-65.621,31.098-104.641,36.162c8.377-6.923,16.064-16.082,22.782-27.289  c15.794-26.35,24.493-61.227,24.493-98.205c0-4.546-0.132-9.074-0.393-13.529c3.593-0.893,7.131-1.843,10.574-2.838  c3.979-1.151,6.272-5.309,5.122-9.289c-1.151-3.979-5.309-6.273-9.289-5.121c-5.155,1.49-10.542,2.874-16.01,4.111  c-3.662,0.829-6.146,4.237-5.815,7.977c0.538,6.069,0.811,12.357,0.811,18.688c0,34.301-7.94,66.438-22.359,90.493  C292.423,368.275,274.623,380.86,256,380.86c-26.298,0-50.65-25.186-63.552-65.73c-1.256-3.947-5.474-6.128-9.421-4.873  c-3.947,1.256-6.128,5.474-4.873,9.421c8.495,26.693,21.788,47.641,37.749,60.759c-39.066-5.054-75.312-17.468-104.757-36.176  C72.883,319.95,51.81,288.605,51.81,256c0-22.409,10.046-44.392,29.169-64.053c13.535,20.919,45.153,38.821,87.923,49.455  c-0.261,4.456-0.393,8.984-0.393,13.528c0,11.383,0.834,22.708,2.479,33.661c0.616,4.097,4.437,6.917,8.531,6.303  c4.096-0.616,6.918-4.435,6.303-8.531c-1.535-10.217-2.313-20.792-2.313-31.432c0-6.328,0.273-12.615,0.811-18.688  c0.332-3.74-2.153-7.148-5.815-7.977C131.521,217.633,97.666,197.99,90.151,177.001z" data-original="#000000" class="active-path" style="fill:#CCCCCC" data-old_color="#000000"/><path d="M212.462,203.617c-0.633,2.123-0.295,4.416,0.922,6.267c1.218,1.85,3.191,3.067,5.391,3.325  c11.994,1.408,24.519,2.122,37.224,2.122c12.699,0,25.22-0.714,37.214-2.122c2.2-0.258,4.173-1.475,5.391-3.325  c1.217-1.851,1.555-4.144,0.922-6.267C290.07,171.9,272.578,150.59,256,150.59C239.417,150.59,221.92,171.9,212.462,203.617z   M282.236,199.241c-8.559,0.724-17.348,1.089-26.236,1.089c-8.893,0-17.686-0.366-26.246-1.089  c8.316-22.012,20.074-33.651,26.246-33.651C262.168,165.59,273.92,177.229,282.236,199.241z" data-original="#000000" class="active-path" style="fill:#CCCCCC" data-old_color="#000000"/><path d="M303.506,235.924c-1.572-1.309-3.612-1.916-5.644-1.687c-27.34,3.109-56.405,3.108-83.736,0  c-2.027-0.227-4.071,0.378-5.644,1.687s-2.543,3.202-2.686,5.243c-0.317,4.541-0.478,9.171-0.478,13.763  c0,27.337,5.669,53.495,15.964,73.655c9.809,19.208,22.787,30.675,34.716,30.675c23.918,0,50.67-44.618,50.67-104.33  c0-4.592-0.161-9.223-0.478-13.763C306.049,239.126,305.079,237.232,303.506,235.924z M277.348,321.763  C268.92,338.269,259.964,344.26,256,344.26c-10.898,0-35.68-33.749-35.68-89.33c0-1.654,0.022-3.313,0.067-4.971  c23.413,2.151,47.794,2.152,71.215,0c0.045,1.657,0.067,3.316,0.067,4.971C291.67,279.94,286.583,303.675,277.348,321.763z" data-original="#000000" class="active-path" style="fill:#CCCCCC" data-old_color="#000000"/></g> </svg>
