<?xml version="1.0"?>
<svg xmlns="http://www.w3.org/2000/svg" xmlns:xlink="http://www.w3.org/1999/xlink" version="1.1" id="Capa_1" x="0px" y="0px" viewBox="0 0 512 512" style="enable-background:new 0 0 512 512;" xml:space="preserve" width="512px" height="512px" class=""><g><path style="fill:#040A28" d="M379.622,512H132.378c-17.069,0-30.905-13.836-30.905-30.905V30.905  C101.473,13.836,115.309,0,132.378,0h247.243c17.069,0,30.905,13.836,30.905,30.905v450.189  C410.527,498.164,396.691,512,379.622,512z" data-original="#707487" class="" data-old_color="#707487"/><g>
	<path style="fill:#051549" d="M395.074,481.095c0,8.521-6.932,15.453-15.453,15.453H132.378c-7.201,0-13.234,4.932-14.948,11.598   c4.431,2.454,9.525,3.855,14.948,3.855h247.243c17.069,0,30.905-13.836,30.905-30.905V30.905c0-5.423-1.401-10.517-3.855-14.948   c-6.665,1.714-11.598,7.747-11.598,14.948" data-original="#606575" class="" data-old_color="#606575"/>
	<path style="fill:#051549" d="M256,480.579c-8.521,0-15.453-6.932-15.453-15.453s6.932-15.453,15.453-15.453   s15.453,6.932,15.453,15.453S264.521,480.579,256,480.579z" data-original="#606575" class="" data-old_color="#606575"/>
</g><path style="fill:#E5DFD3;" d="M134.164,416.496c1.418,1.703,3.552,2.788,5.941,2.788h231.791c4.267,0,7.726-3.459,7.726-7.726  V38.632c0-2.111-0.848-4.022-2.22-5.416L204.344,162.254L134.164,416.496z" data-original="#E5DFD3" class=""/><path style="fill:#FFF9EB;" d="M371.895,30.905H140.105c-4.267,0-7.726,3.459-7.726,7.726v372.926c0,1.878,0.672,3.599,1.785,4.939  l243.238-383.28C376,31.791,374.052,30.905,371.895,30.905z" data-original="#FFF9EB" class=""/><path style="fill:#EB102B" d="M334.446,163.386c-21.143-23.666-56.698-24.163-78.446-1.49  c-21.748-22.672-57.303-22.176-78.446,1.49c-20.139,22.542-18.592,58.033,2.302,79.815l47.244,49.253  c15.961,16.639,41.839,16.639,57.799,0l47.244-49.253C353.038,221.419,354.585,185.928,334.446,163.386z" data-original="#F05467" class="active-path" data-old_color="#F05467"/><path style="fill:#FF6473;" d="M256,161.895c-21.748-22.672-57.303-22.176-78.446,1.49c-20.139,22.542-18.592,58.033,2.302,79.816  l38.688,40.333l87.007-137.1C288.204,142.717,269.459,147.864,256,161.895z" data-original="#FF6473" class=""/><path style="fill:#E5DFD3;" d="M132.378,217.368v15.453h40.51c-3.107-4.824-5.463-10.042-7.068-15.453H132.378z" data-original="#E5DFD3" class=""/><path style="fill:#D4CFC2" d="M379.622,217.368h-33.441c-1.605,5.411-3.961,10.628-7.068,15.453h40.509V217.368z" data-original="#D4CFC2" class="" data-old_color="#D4CFC2"/><path style="fill:#FFF9EB;" d="M315.149,217.368l-8.953-16.116c-1.363-2.453-3.949-3.973-6.754-3.973s-5.391,1.522-6.754,3.973  l-26.729,48.112l-37.889-68.202c-1.363-2.453-3.949-3.973-6.754-3.973s-5.391,1.522-6.754,3.973l-20.115,36.207h-28.628  c1.605,5.411,3.961,10.628,7.068,15.453h26.106c2.806,0,5.391-1.522,6.754-3.973l15.568-28.023l37.889,68.202  c1.363,2.453,3.949,3.973,6.754,3.973s5.391-1.522,6.754-3.973l26.729-48.111l4.407,7.932c1.363,2.453,3.949,3.973,6.754,3.973  h28.51c3.107-4.824,5.463-10.042,7.068-15.453L315.149,217.368L315.149,217.368z" data-original="#FFF9EB" class=""/></g> </svg>
