<?xml version="1.0"?>
<svg xmlns="http://www.w3.org/2000/svg" id="Layer_5" enable-background="new 0 0 64 64" height="512px" viewBox="0 0 64 64" width="512px" class=""><g><g><g><path d="m50.211 5.487-.212-.106c-.057-2.425-2.048-4.381-4.486-4.381h-6.513c-3.717 0-6.766 2.911-6.987 6.573l-.195.195c-1.172 1.172-1.818 2.73-1.818 4.387 0 .669.107 1.329.318 1.962l.342 1.026c.55-.691 1.388-1.143 2.34-1.143h1l.139-.001c.418-1.929 1.884-3.505 3.861-3.999 2.63 1.315 5.531 2 8.472 2h3.528v2h1c.849 0 1.611.356 2.157.922l.119-.238c.474-.949.724-2.008.724-3.066 0-2.612-1.452-4.962-3.789-6.131z" fill="#f0bc5e" data-original="#F0BC5E" class="" style="fill:#CB0A0A" data-old_color="#f0bc5e"/></g><g><path d="m23 10h-7v-7c0-.552-.448-1-1-1h-4c-.552 0-1 .448-1 1v7h-7c-.552 0-1 .448-1 1v4c0 .552.448 1 1 1h7v7c0 .552.448 1 1 1h4c.552 0 1-.448 1-1v-7h7c.552 0 1-.448 1-1v-4c0-.552-.448-1-1-1z" fill="#f0bc5e" data-original="#F0BC5E" class="" style="fill:#CB0A0A" data-old_color="#f0bc5e"/></g><g><path d="m54.027 30.488-7.189-1.349-.297-1.382c2.39-1.405 4.08-3.874 4.401-6.758h.058c2.206 0 4-1.794 4-4s-1.794-4-4-4v-2h-4.528c-2.771 0-5.546-.655-8.024-1.895l-.332-.164-.358.09c-2.082.52-3.693 2.04-4.385 3.97h-.373c-2.206 0-4 1.794-4 4s1.794 4 4 4h.059c.32 2.883 2.01 5.353 4.401 6.758l-.297 1.382-7.189 1.349c-4.101.768-7.304 3.703-8.481 7.566l-5.784-6.761-3.148-3.149c-.737-.737-1.719-1.144-2.763-1.144-1.428 0-2.718.762-3.41 2h-2.388c-1.654 0-3 1.346-3 3 0 2.757 2.243 5 5 5h4.5l7.406 9.873c.998 1.331 2.587 2.126 4.251 2.126 1.441 0 2.841-.598 3.84-1.641l1.003-1.048v16.689h36v-21.701c0-5.289-3.773-9.836-8.973-10.811zm6.973 10.811v13.701h-4v-13c0-.789.32-1.563.88-2.121l.828-.829-1.416-1.414-.827.829c-.944.944-1.465 2.2-1.465 3.535v19h-12v-22.461l5 2.222v6.381c-1.721.447-3 1.999-3 3.858v4h2v-4c0-1.103.897-2 2-2s2 .897 2 2v4h2v-4c0-1.859-1.279-3.411-3-3.858v-5.492l2.292 1.019-1.802-10.81 3.168.594c4.254.798 7.342 4.518 7.342 8.846zm-26 7.701c1.103 0 2 .897 2 2s-.897 2-2 2-2-.897-2-2 .897-2 2-2zm-.532-9.746 1.986-7.947 1.031-.193 3.098 5.421zm12.047-8.14 1.882.353 1.311 7.864-6.291-2.796zm2.485-13.114h-4v-2h4zm4-1c0 1.103-.897 2-2 2v-1-2-1c1.103 0 2 .897 2 2zm-15.091-5.932c2.663 1.265 5.614 1.932 8.563 1.932h2.528v1h-4c-.737 0-1.375.405-1.722 1h-2.557c-.347-.595-.985-1-1.722-1h-3.839c.37-1.358 1.383-2.471 2.749-2.932zm-2.909 4.932h4l.002 2h-4.002zm-4 1c0-1.103.897-2 2-2h.01c0 .042-.01.081-.01.123v.877 2 1c-1.103 0-2-.897-2-2zm4 3h4c1.103 0 2-.897 2-2v-1h2v1c0 1.103.897 2 2 2h4c0 3.859-3.141 7-7 7s-7-3.141-7-7zm7 9c.931 0 1.829-.142 2.675-.406l.267 1.242-2.942 5.149-2.942-5.149.267-1.242c.846.264 1.744.406 2.675.406zm-39 3.001c0-.552.448-1 1-1h3.619l.472-.946c.325-.649.979-1.054 1.705-1.054.51 0 .989.198 1.349.558l2.443 2.44-3.003 3.003h-4.585c-1.654-.001-3-1.347-3-3.001zm24.536 6.464-.828-.829-1.416 1.414.829.829c.559.559.879 1.332.879 2.121v1.417l-2.448 2.56c-.622.65-1.495 1.023-2.395 1.023-1.037 0-2.028-.495-2.651-1.325l-7.186-9.581 2.622-2.622 5.974 6.986.091.094c.631.567.993 1.38.993 2.229v.219h2v-.219c0-1.022-.32-2.008-.89-2.836.57-3.736 3.491-6.791 7.232-7.492l3.95-.74-2.759 11.033 2.467-1.097v5.492c-1.721.447-3 1.999-3 3.858 0 2.206 1.794 4 4 4s4-1.794 4-4c0-1.859-1.279-3.411-3-3.858v-6.381l5-2.222v22.462h-12v-19c0-1.335-.521-2.591-1.464-3.535zm29.464 22.535v-4h4v4z" data-original="#000000" class="active-path" style="fill:#051B34" data-old_color="#000000"/><path d="m45 22h-2c0 .552-.448 1-1 1s-1-.448-1-1h-2c0 1.654 1.346 3 3 3s3-1.346 3-3z" data-original="#000000" class="active-path" style="fill:#051B34" data-old_color="#000000"/></g></g></g> </svg>
