<?xml version="1.0"?>
<svg xmlns="http://www.w3.org/2000/svg" id="Capa_1" enable-background="new 0 0 512 512" height="512px" viewBox="0 0 512 512" width="512px" class=""><g><g><g><path clip-rule="evenodd" d="m112.555 463.469v-98.045-1.616c0-8.759-7.178-15.958-15.973-15.958h-38.614c-8.795 0-15.973 7.2-15.973 15.958v101.276c0 8.787 7.178 15.958 15.973 15.958h38.614c8.795 0 15.973-7.171 15.973-15.958z" fill="#66e0f7" fill-rule="evenodd" data-original="#66E0F7"/></g><g><path clip-rule="evenodd" d="m272.428 387.079c-7.717 0-8.824-1.304-13.647-5.839-38.727-36.423-70.361-34.637-109.06-19.388-8.341 3.288-9.448 3.26-17.08 3.571h-20.087v98.045h30.102c4.085 0 3.717.198 9.703 1.814l99.981 26.701c35.152 9.524 49.224 18.282 82.618-3.968l123.217-87.671c11.263-8.022 15.462-22.846 8.171-34.609-7.263-11.735-22.3-14.484-34.613-8.163l-83.923 43.084c-4.426-8.078-13.022-13.577-22.839-13.577z" fill="#ffd0c7" fill-rule="evenodd" data-original="#FFD0C7"/></g><g><path clip-rule="evenodd" d="m275.804 240.423-53.282-44.331-50.558 60.686 53.282 44.331c16.711 13.889 41.763 11.593 55.665-5.102 13.902-16.666 11.604-41.695-5.107-55.584z" fill="#66e0f7" fill-rule="evenodd" data-original="#66E0F7"/></g><g><path clip-rule="evenodd" d="m222.522 196.092-53.31-44.303c-16.682-13.889-41.734-11.621-55.636 5.074s-11.604 41.724 5.078 55.612l53.31 44.303z" fill="#ccf5fc" fill-rule="evenodd" data-original="#CCF5FC"/></g><g><path clip-rule="evenodd" d="m430.542 261.767-83.299-83.22c-22.981 22.988-22.981 60.233 0 83.22 23.009 22.959 60.29 22.959 83.299 0z" fill="#ffda8f" fill-rule="evenodd" data-original="#FFDA8F"/></g><g><path clip-rule="evenodd" d="m430.542 261.767c23.009-22.988 23.009-60.233 0-83.22-23.009-22.988-60.289-22.988-83.299 0z" fill="#fff3da" fill-rule="evenodd" data-original="#FFF3DA"/></g><g><path clip-rule="evenodd" d="m299.693 104.708-19.321-76.559-67.24 16.922c-21.08 5.329-33.961 26.899-28.655 47.959 5.305 21.032 26.896 33.929 47.976 28.6z" fill="#66e0f7" fill-rule="evenodd" data-original="#66E0F7"/></g><g><path clip-rule="evenodd" d="m366.933 87.758c21.052-5.3 33.961-26.871 28.655-47.931-5.334-21.06-26.924-33.929-48.004-28.628l-67.212 16.95 19.321 76.559z" fill="#ccf5fc" fill-rule="evenodd" data-original="#CCF5FC"/></g><g><path d="m474.849 360.474c-9.712-15.693-30.211-20.767-47.679-11.798l-76.47 39.231c-6.546-6.675-15.659-10.827-25.728-10.827h-52.544c-2.748 0-3.484-.202-3.532-.21-.425-.239-1.725-1.464-2.768-2.448l-.496-.466c-42.614-40.08-78.622-37.543-119.576-21.407-6.567 2.589-6.693 2.594-13.275 2.861l-11.625.008c-3.499-10.207-13.189-17.567-24.573-17.567h-38.615c-14.322 0-25.973 11.645-25.973 25.958v6.009c0 5.522 4.477 9.999 9.999 9.999s9.999-4.477 9.999-9.999v-6.009c0-3.23 2.736-5.959 5.974-5.959h38.613c3.238 0 5.974 2.728 5.974 5.959v101.276c0 3.286-2.68 5.959-5.974 5.959h-38.612c-3.294 0-5.974-2.673-5.974-5.959v-5.726c0-5.522-4.477-9.999-9.999-9.999s-9.999 4.477-9.999 9.999v5.726c0 14.313 11.651 25.958 25.973 25.958h38.613c11.386 0 21.078-7.364 24.575-17.574h21.5c1.848 0 1.848 0 3.971.602.824.233 1.832.519 3.152.874l99.946 26.692c4.398 1.191 8.433 2.363 12.336 3.496 12.852 3.732 23.652 6.869 34.915 6.869 12.718-.001 26.025-4.002 43.526-15.663.085-.057.169-.115.253-.174l123.22-87.673c16.073-11.448 20.745-32.092 10.873-48.018zm-22.471 31.723-123.09 87.581c-25.175 16.74-35.871 13.633-61.649 6.148-3.988-1.158-8.111-2.355-12.718-3.603l-99.956-26.695c-1.196-.322-2.127-.586-2.889-.802-3.643-1.031-5.006-1.357-9.419-1.357h-20.102v-78.046h10.087c.136 0 .272-.003.408-.009l.541-.021c8.16-.331 10.442-.55 19.797-4.237 35.741-14.083 63.323-15.756 98.544 17.369l.481.453c5.978 5.633 9.678 8.101 20.015 8.101h52.544c8.848 0 16.046 7.187 16.046 16.021 0 8.835-7.198 16.022-16.046 16.022h-85.143c-5.523 0-9.999 4.477-9.999 9.999s4.477 9.999 9.999 9.999h85.143c19.875 0 36.045-16.158 36.045-36.021 0-2.604-.285-5.143-.813-7.592l76.097-39.04c7.067-3.63 16.735-3.236 21.547 4.536 4.24 6.843 1.887 15.955-5.47 21.194z" data-original="#000000" class="active-path" data-old_color="#000000" style="fill:#0E0E53"/><path d="m112.261 220.164 106.593 88.635c9.235 7.675 20.462 11.419 31.629 11.419 14.212 0 28.326-6.065 38.105-17.807 8.432-10.108 12.412-22.937 11.208-36.126-1.206-13.204-7.457-25.121-17.6-33.552l-106.587-88.63c-20.978-17.465-52.254-14.613-69.719 6.361-8.432 10.125-12.411 22.971-11.204 36.168 1.209 13.194 7.448 25.101 17.575 33.532zm157.152 27.949c6.031 5.013 9.749 12.113 10.468 19.992.718 7.862-1.643 15.496-6.649 21.497-.002.002-.004.004-.006.007-10.413 12.504-29.07 14.215-41.587 3.811l-45.598-37.917 37.757-45.321zm-148.153-84.852c5.825-6.995 14.227-10.607 22.691-10.607 6.66 0 13.359 2.237 18.868 6.824l45.602 37.919-37.757 45.321-45.611-37.927c-6.018-5.01-9.728-12.105-10.449-19.979-.72-7.878 1.643-15.531 6.656-21.551z" data-original="#000000" class="active-path" data-old_color="#000000" style="fill:#0E0E53"/><path d="m197.426 125.803c7.805 4.656 16.513 7.042 25.334 7.042 4.046 0 8.118-.502 12.134-1.517l134.48-33.872c12.773-3.216 23.552-11.249 30.352-22.62 6.802-11.375 8.776-24.675 5.558-37.45-.001-.005-.002-.009-.003-.013-6.695-26.434-33.674-42.525-60.141-35.87l-134.459 33.873c-26.459 6.689-42.564 33.648-35.901 60.1 3.221 12.767 11.264 23.537 22.646 30.327zm152.596-104.907c2.411-.606 4.829-.896 7.21-.896 13.207 0 25.273 8.921 28.66 22.269 1.913 7.593.73 15.513-3.329 22.301s-10.477 11.579-18.071 13.492l-57.552 14.496-14.428-57.172zm-134.448 33.872 57.543-14.497 14.428 57.171-57.544 14.494c-7.602 1.923-15.533.747-22.33-3.307-6.792-4.052-11.586-10.459-13.498-18.04-3.971-15.766 5.633-31.835 21.401-35.821z" data-original="#000000" class="active-path" data-old_color="#000000" style="fill:#0E0E53"/><path d="m340.171 171.476c-26.834 26.843-26.834 70.519 0 97.36l.009.009c13.43 13.401 31.07 20.101 48.711 20.101 17.642 0 35.285-6.702 48.717-20.105 13.02-13.006 20.189-30.296 20.189-48.684s-7.17-35.677-20.189-48.684c-26.862-26.837-70.569-26.837-97.437.003zm14.137 83.215c-16.612-16.624-18.72-42.344-6.331-61.277l67.679 67.616c-18.96 12.374-44.705 10.263-61.348-6.339zm69.166-69.071c9.237 9.229 14.324 21.495 14.324 34.536 0 9.65-2.792 18.871-7.981 26.753l-67.696-67.632c18.963-12.395 44.711-10.283 61.353 6.343z" data-original="#000000" class="active-path" data-old_color="#000000" style="fill:#0E0E53"/><path d="m41.995 424.46c5.523 0 9.999-4.477 9.999-10v-.057c0-5.522-4.477-9.971-9.999-9.971s-9.999 4.506-9.999 10.028c-.001 5.522 4.476 10 9.999 10z" data-original="#000000" class="active-path" data-old_color="#000000" style="fill:#0E0E53"/></g></g></g> </svg>
