<?xml version="1.0" encoding="UTF-8" standalone="no"?>
<!DOCTYPE svg PUBLIC "-//W3C//DTD SVG 1.1//EN" "http://www.w3.org/Graphics/SVG/1.1/DTD/svg11.dtd">
<svg version="1.1" xmlns="http://www.w3.org/2000/svg" xmlns:xlink="http://www.w3.org/1999/xlink" preserveAspectRatio="xMidYMid meet" viewBox="0 0 640 640" width="640" height="640"><defs><path d="M360.39 5.79C368.15 -1.94 380.71 -1.93 388.46 5.83C396.2 13.59 396.18 26.16 388.42 33.9C373.57 48.7 299.33 122.74 165.7 256C299.33 389.26 373.58 463.3 388.43 478.1C396.18 485.84 396.2 498.41 388.47 506.17C384.58 510.06 379.5 512 374.41 512C369.33 512 364.27 510.07 360.39 506.21C336.71 482.59 147.26 293.67 123.58 270.05C119.84 266.33 117.74 261.27 117.74 256C117.74 250.73 119.84 245.68 123.58 241.95C170.94 194.72 336.71 29.41 360.39 5.79Z" id="b1HJBokNg6"></path></defs><g><g><g><use xlink:href="#b1HJBokNg6" opacity="1" fill="#ffffff" fill-opacity="1"></use><g><use xlink:href="#b1HJBokNg6" opacity="1" fill-opacity="0" stroke="#000000" stroke-width="1" stroke-opacity="0"></use></g></g></g></g></svg>